<svg xmlns="http://www.w3.org/2000/svg" viewBox="0 0 130 24" width="130" height="24">

  <polygon points="12,2 15.09,8.26 22,9.27 17,14.14 18.18,21.02 12,17.77 5.82,21.02 7,14.14 2,9.27 8.91,8.26"
    fill="#FACC15" stroke="#F59E0B" stroke-width="0.5"/>

  <polygon points="38,2 41.09,8.26 48,9.27 43,14.14 44.18,21.02 38,17.77 31.82,21.02 33,14.14 28,9.27 34.91,8.26"
    fill="#FACC15" stroke="#F59E0B" stroke-width="0.5"/>

  <polygon points="64,2 67.09,8.26 74,9.27 69,14.14 70.18,21.02 64,17.77 57.82,21.02 59,14.14 54,9.27 60.91,8.26"
    fill="#FACC15" stroke="#F59E0B" stroke-width="0.5"/>

  <polygon points="90,2 93.09,8.26 100,9.27 95,14.14 96.18,21.02 90,17.77 83.82,21.02 85,14.14 80,9.27 86.91,8.26"
    fill="#FACC15" stroke="#F59E0B" stroke-width="0.5"/>

</svg>